#!OML:ASF H:\Male1\Project 1\Capture day 1\Session 1\Male1.ASF
:FULLY-SPECIFIED
:DEGREES
323
root 10.533 15.3387 8.65315 -2.67692 -182.404 -1.03793
lowerback 7.79541 0.982923 -0.986668
upperback 3.58947 1.513 -1.15546
thorax -0.654289 0.877808 -0.760272
lowerneck -3.22863 5.57671 9.50759
upperneck -3.37181 6.95749 -7.86564
head 0.158883 3.33487 -4.15914
rclavicle -4.52235e-015 4.57205e-015
rhumerus -37.2018 -10.53 -81.817
rradius 28.5552
rwrist -16.1705
rhand -27.208 3.04137
rfingers 7.12502
rthumb -0.621005 -26.9375
lclavicle -4.52235e-015 4.57205e-015
lhumerus -37.3466 -6.90555 85.2604
lradius 42.6288
lwrist 4.60776
lhand -19.5041 10.4024
lfingers 7.12502
lthumb 6.81856 40.2726
rfemur -4.8717 14.2061 25.8965
rtibia 27.2789
rfoot -28.4654 -27.6547
rtoes -16.3181
lfemur -5.55935 -13.7945 -21.9466
ltibia 27.7562
lfoot -19.5709 21.6601
ltoes -16.1088
324
root 10.5268 15.3367 8.66934 -2.69968 -182.454 -1.22343
lowerback 7.76965 1.01909 -1.16479
upperback 3.59425 1.55146 -1.22751
thorax -0.63704 0.897014 -0.736992
lowerneck -3.15465 5.59363 9.39224
upperneck -3.47664 6.98606 -7.696
head 0.102266 3.34987 -4.07974
rclavicle 1.30701e-014 -7.95139e-015
rhumerus -37.2711 -11.232 -81.5017
rradius 28.4325
rwrist -15.5434
rhand -26.7241 3.16161
rfingers 7.12502
rthumb -0.153641 -26.8181
lclavicle 1.30701e-014 -7.95139e-015
lhumerus -37.2944 -6.79206 85.1301
lradius 41.5349
lwrist 3.87882
lhand -19.1588 10.3651
lfingers 7.12502
lthumb 7.1519 40.2243
rfemur -4.95778 14.3766 25.6279
rtibia 27.282
rfoot -28.5823 -27.5552
rtoes -15.8595
lfemur -5.60234 -13.8189 -22.1707
ltibia 27.7335
lfoot -19.3699 21.816
ltoes -16.6038
325
root 10.5208 15.3306 8.68431 -2.69756 -182.499 -1.17284
lowerback 7.71062 1.01174 -1.18331
upperback 3.59214 1.53929 -1.18849
thorax -0.608264 0.889212 -0.684023
lowerneck -3.12884 5.65102 9.39026
upperneck -3.47933 7.06491 -7.75637
head 0.106723 3.38991 -4.0988
rclavicle 5.01931e-015 -2.06736e-014
rhumerus -37.3301 -10.3095 -81.839
rradius 28.5493
rwrist -16.512
rhand -26.8943 2.93074
rfingers 7.12502
rthumb -0.318042 -27.0488
lclavicle 5.01931e-015 -2.06736e-014
lhumerus -37.2687 -6.284 84.8943
lradius 40.4371
lwrist 3.05073
lhand -18.4523 10.3093
lfingers 7.12502
lthumb 7.83382 40.1442
rfemur -5.04925 14.4974 25.6208
rtibia 27.237
rfoot -28.5547 -27.6826
rtoes -16.2779
lfemur -5.689 -13.7782 -22.115
ltibia 27.7728
lfoot -19.3441 21.8038
ltoes -16.756
326
root 10.5174 15.3244 8.69793 -2.7177 -182.438 -1.1919
lowerback 7.66383 1.01076 -1.19712
upperback 3.59208 1.53829 -1.23965
thorax -0.581372 0.889266 -0.727646
lowerneck -3.09464 5.64111 9.59177
upperneck -3.47866 7.04787 -7.96978
head 0.11681 3.38046 -4.21542
rclavicle -9.0447e-015 9.93923e-016
rhumerus -37.3693 -10.4151 -81.8432
rradius 28.4398
rwrist -16.5854
rhand -27.0498 2.96047
rfingers 7.12502
rthumb -0.468138 -27.0188
lclavicle -9.0447e-015 9.93923e-016
lhumerus -37.2708 -6.22247 84.6281
lradius 39.3746
lwrist 2.54705
lhand -17.816 10.3239
lfingers 7.12502
lthumb 8.44793 40.135
rfemur -5.03232 14.4971 25.5884
rtibia 27.0998
rfoot -28.6857 -27.9254
rtoes -16.5272
lfemur -5.80099 -13.7765 -22.1308
ltibia 27.8975
lfoot -19.5068 21.6648
ltoes -16.2034
327
root 10.5107 15.3225 8.7118 -2.80364 -182.421 -1.12886
lowerback 7.71453 1.04143 -1.04177
upperback 3.60544 1.59213 -1.30063
thorax -0.589759 0.919927 -0.882869
lowerneck -3.12469 5.59307 9.77937
upperneck -3.43785 6.97683 -8.11546
head 0.142563 3.34341 -4.30496
rclavicle -7.30534e-015 1.86858e-014
rhumerus -37.4793 -10.5692 -81.859
rradius 28.4338
rwrist -16.7265
rhand -27.1245 2.87647
rfingers 7.12502
rthumb -0.540288 -27.1026
lclavicle -7.30534e-015 1.86858e-014
lhumerus -37.2601 -6.37539 84.364
lradius 38.3164
lwrist 2.18661
lhand -17.5275 10.4109
lfingers 7.12502
lthumb 8.72629 40.2105
rfemur -4.89334 14.5218 25.6457
rtibia 26.9215
rfoot -29.044 -27.8508
rtoes -16.1334
lfemur -5.84767 -13.8397 -22.0971
ltibia 28.0571
lfoot -19.7713 21.5908
ltoes -15.1979
328
root 10.4992 15.3268 8.72249 -2.85858 -182.522 -0.77057
lowerback 7.70508 1.04361 -0.693308
upperback 3.6196 1.61656 -1.19014
thorax -0.564381 0.933205 -0.965982
lowerneck -3.17591 5.62575 9.90462
upperneck -3.36629 7.01499 -8.27256
head 0.190862 3.36137 -4.38151
rclavicle 2.73329e-015 -7.95139e-015
rhumerus -37.5887 -10.2217 -81.9331
rradius 28.5411
rwrist -17.081
rhand -27.2779 2.67314
rfingers 7.12502
rthumb -0.688475 -27.3055
lclavicle 2.73329e-015 -7.95139e-015
lhumerus -37.2687 -5.85561 83.9833
lradius 37.2813
lwrist 1.48783
lhand -17.385 10.6285
lfingers 7.12502
lthumb 8.86387 40.4223
rfemur -4.80836 14.4919 25.9933
rtibia 26.8394
rfoot -29.2145 -27.6569
rtoes -16.1582
lfemur -5.83968 -13.8736 -21.7529
ltibia 28.13
lfoot -20.1119 21.4791
ltoes -14.2109
329
root 10.4864 15.3289 8.72957 -2.93549 -182.652 -0.539773
lowerback 7.64585 1.04891 -0.408852
upperback 3.64942 1.64351 -1.13412
thorax -0.495005 0.948841 -1.06786
lowerneck -3.20516 5.6882 9.85523
upperneck -3.29483 7.10215 -8.27608
head 0.226204 3.40635 -4.36762
rclavicle 4.77083e-015 -3.18055e-015
rhumerus -37.6556 -10.1893 -81.8759
rradius 28.5516
rwrist -17.0365
rhand -27.3332 2.6627
rfingers 7.12502
rthumb -0.741866 -27.3158
lclavicle 4.77083e-015 -3.18055e-015
lhumerus -37.2424 -5.14957 83.4817
lradius 36.2129
lwrist 0.731375
lhand -17.0614 10.8199
lfingers 7.12502
lthumb 9.17608 40.6003
rfemur -4.73806 14.465 26.2099
rtibia 26.8418
rfoot -28.8654 -27.836
rtoes -17.785
lfemur -5.74444 -13.8511 -21.5756
ltibia 28.1187
lfoot -20.2454 21.4865
ltoes -14.3126
330
root 10.4839 15.3223 8.74448 -2.99193 -182.483 -0.913379
lowerback 7.68006 1.01775 -0.834963
upperback 3.63557 1.57559 -1.23179
thorax -0.536808 0.912825 -0.925238
lowerneck -3.10713 5.67508 9.74504
upperneck -3.34288 7.09549 -8.21504
head 0.185062 3.40594 -4.32835
rclavicle -2.18663e-014 1.90833e-014
rhumerus -37.7524 -10.6037 -81.6644
rradius 28.5262
rwrist -16.6105
rhand -27.2317 2.71287
rfingers 7.12502
rthumb -0.643881 -27.2659
lclavicle -2.18663e-014 1.90833e-014
lhumerus -37.2095 -4.52067 82.9857
lradius 35.1389
lwrist 0.0626475
lhand -16.6765 10.6891
lfingers 7.12502
lthumb 9.54743 40.4528
rfemur -4.67701 14.5055 25.7908
rtibia 26.7332
rfoot -28.5732 -28.2096
rtoes -19.6504
lfemur -5.84341 -13.7288 -21.9721
ltibia 28.2498
lfoot -20.0976 21.4096
ltoes -15.5256
331
root 10.4799 15.317 8.75631 -3.04119 -182.419 -1.29656
lowerback 7.67437 1.05565 -1.24401
upperback 3.64036 1.60343 -1.33408
thorax -0.535386 0.925753 -0.803226
lowerneck -3.25301 5.66492 9.5507
upperneck -3.19473 7.08416 -8.01134
head 0.241086 3.40188 -4.21096
rclavicle 2.98177e-016 7.15625e-015
rhumerus -37.8495 -11.1776 -81.3724
rradius 28.4731
rwrist -16.1819
rhand -27.2035 2.88496
rfingers 7.12502
rthumb -0.616667 -27.0939
lclavicle 2.98177e-016 7.15625e-015
lhumerus -37.1782 -4.09256 82.5823
lradius 34.1526
lwrist -0.390327
lhand -16.5771 10.4792
lfingers 7.12502
lthumb 9.64343 40.2384
rfemur -4.63258 14.5627 25.329
rtibia 26.6238
rfoot -28.67 -28.1489
rtoes -19.7955
lfemur -5.93999 -13.6842 -22.4072
ltibia 28.4157
lfoot -20.102 21.4347
ltoes -16.1247
332
root 10.4748 15.3192 8.77694 -2.98053 -182.821 -0.426168
lowerback 7.76923 1.15842 -0.407309
upperback 3.57977 1.7826 -1.11794
thorax -0.633254 1.01591 -1.06785
lowerneck -3.21294 5.686 9.64839
upperneck -3.20789 7.11314 -8.05852
head 0.238542 3.41637 -4.24728
rclavicle -3.40916e-014 2.10712e-014
rhumerus -37.9274 -11.4824 -81.2617
rradius 28.4172
rwrist -16.0138
rhand -27.2983 3.09217
rfingers 7.12502
rthumb -0.708223 -26.8864
lclavicle -3.40916e-014 2.10712e-014
lhumerus -37.2143 -3.74679 82.1439
lradius 33.3072
lwrist -0.539067
lhand -16.926 10.5616
lfingers 7.12502
lthumb 9.30676 40.3362
rfemur -4.72821 15.0285 26.2887
rtibia 26.5064
rfoot -28.6882 -28.1461
rtoes -19.085
lfemur -6.15247 -13.4882 -21.3899
ltibia 28.6268
lfoot -20.409 21.3699
ltoes -15.479
333
root 10.4697 15.3173 8.78457 -3.00231 -182.925 -0.139292
lowerback 7.74063 1.14774 -0.132601
upperback 3.57287 1.78463 -1.09052
thorax -0.617631 1.01811 -1.19309
lowerneck -3.1635 5.72673 9.74125
upperneck -3.2293 7.16994 -8.04596
head 0.231416 3.44498 -4.26084
rclavicle -5.96354e-016 6.36111e-015
rhumerus -37.9942 -11.7416 -81.2289
rradius 28.3324
rwrist -15.7018
rhand -27.2208 3.09807
rfingers 7.12502
rthumb -0.633372 -26.8807
lclavicle -5.96354e-016 6.36111e-015
lhumerus -37.3101 -3.10664 81.5282
lradius 32.5574
lwrist -0.868161
lhand -17.3359 10.6561
lfingers 7.12502
lthumb 8.91126 40.4479
rfemur -4.67584 15.041 26.5841
rtibia 26.4038
rfoot -28.862 -27.9581
rtoes -18.8166
lfemur -6.22318 -13.475 -21.0817
ltibia 28.799
lfoot -20.7594 21.2297
ltoes -14.6604
334
root 10.4657 15.3134 8.79461 -3.08336 -182.976 -0.253878
lowerback 7.79017 1.12318 -0.353465
upperback 3.59144 1.74009 -1.10862
thorax -0.63223 0.995452 -1.08538
lowerneck -3.16202 5.77404 9.7233
upperneck -3.29754 7.22887 -8.04555
head 0.213894 3.47272 -4.25616
rclavicle -3.8266e-015 0
rhumerus -37.9969 -12.0015 -81.0622
rradius 28.2284
rwrist -15.2679
rhand -27.0528 3.00157
rfingers 7.12502
rthumb -0.471104 -26.9777
lclavicle -3.8266e-015 0
lhumerus -37.39 -2.23217 80.9305
lradius 31.8544
lwrist -1.33565
lhand -17.318 10.6419
lfingers 7.12502
lthumb 8.9285 40.433
rfemur -4.59804 15.0647 26.4594
rtibia 26.3034
rfoot -28.9335 -27.827
rtoes -18.658
lfemur -6.28955 -13.4964 -21.2402
ltibia 28.9858
lfoot -20.8147 21.3302
ltoes -14.9109
